 <svg version="1.0" xmlns="http://www.w3.org/2000/svg"  width="300.000000pt" height="272.000000pt" viewBox="0 0 300.000000 272.000000"  preserveAspectRatio="xMidYMid meet">  <g transform="translate(0.000000,272.000000) scale(0.050000,-0.050000)" fill="#000000" stroke="none"> <path d="M4160 5031 l0 -251 -488 0 c-778 0 -853 -36 -1309 -639 -103 -136 -191 -258 -196 -270 -7 -20 689 -710 734 -727 9 -4 30 19 47 50 195 360 503 536 967 552 l245 8 0 -217 c0 -119 5 -217 11 -217 6 0 58 34 115 77 57 42 374 259 704 483 676 458 627 423 600 433 -11 4 -322 214 -690 467 -369 253 -686 469 -705 481 -33 19 -35 3 -35 -230z m226 -157 c-7 -13 3 -10 24 6 30 24 34 24 21 2 -13 -22 -9 -26 17 -16 19 8 30 7 25 -1 -5 -8 35 -42 89 -74 54 -33 98 -72 98 -87 0 -17 12 -24 30 -17 18 7 42 -7 62 -37 18 -28 40 -45 50 -39 10 7 24 -2 30 -20 7 -17 19 -27 26 -22 8 5 38 -13 67 -40 30 -27 63 -49 74 -49 12 0 21 -9 21 -20 0 -11 11 -18 25 -15 14 3 23 -7 20 -21 -4 -15 4 -21 15 -14 29 18 153 -79 153 -118 0 -18 -9 -32 -21 -33 -12 0 -47 -26 -77 -57 -31 -31 -89 -73 -130 -94 -41 -21 -91 -54 -111 -73 -20 -20 -45 -31 -55 -24 -11 6 -19 4 -19 -6 0 -23 -202 -172 -233 -172 -14 0 -21 -7 -15 -16 6 -9 -4 -17 -22 -17 -20 0 -27 -9 -18 -25 8 -14 7 -18 -2 -10 -9 8 -33 0 -53 -18 -21 -18 -37 -26 -37 -18 0 9 -14 4 -32 -11 -28 -23 -46 -11 -139 85 -59 62 -112 107 -118 101 -6 -6 -11 0 -11 14 0 15 -15 20 -38 13 -21 -7 -44 -4 -50 6 -13 21 -195 16 -232 -7 -17 -11 -21 -8 -12 7 8 13 5 23 -7 23 -11 0 -21 -10 -21 -22 0 -12 -32 -19 -76 -16 -41 3 -88 -2 -103 -11 -18 -12 -23 -10 -13 6 20 33 0 29 -35 -7 -17 -17 -56 -32 -87 -34 -31 -2 -71 -16 -90 -32 -18 -15 -44 -21 -58 -13 -13 8 -19 7 -14 -3 6 -10 -11 -39 -37 -64 -26 -25 -47 -38 -48 -30 0 9 -13 -1 -30 -23 -16 -21 -29 -31 -29 -22 0 10 -31 -15 -69 -54 -38 -39 -74 -66 -80 -59 -6 6 -11 0 -11 -12 0 -60 -121 -150 -151 -111 -15 20 -28 30 -28 22 -1 -8 -19 0 -40 19 -21 18 -34 41 -28 50 5 9 3 15 -7 12 -27 -9 -146 108 -132 130 7 11 3 15 -7 8 -18 -11 -40 7 -153 124 -37 37 -31 142 8 142 10 0 18 14 18 30 0 17 9 30 20 30 11 0 20 9 20 21 0 25 72 127 135 191 25 25 45 56 45 68 0 12 8 17 19 11 10 -6 24 7 31 29 7 22 23 40 37 40 13 0 35 19 50 42 14 23 31 37 37 31 6 -6 24 3 41 19 25 25 34 26 48 4 13 -21 16 -21 17 0 0 15 8 21 19 15 10 -6 24 -3 31 9 7 11 -4 20 -24 20 -22 1 -10 14 33 35 54 27 70 28 77 7 7 -22 12 -22 26 1 16 26 192 29 753 12 80 -3 145 3 145 12 0 10 12 13 28 7 43 -17 257 151 262 206 6 57 35 119 51 109 11 -6 13 -22 5 -35z"/> <path d="M594 4744 l-116 -117 129 -119 c114 -105 935 -909 2683 -2628 308 -303 644 -633 747 -732 l187 -181 108 108 c136 136 158 87 -207 445 -316 310 -437 429 -2352 2311 -570 560 -1043 1021 -1050 1024 -8 3 -66 -47 -129 -111z"/> <path d="M1340 4659 c94 -90 244 -237 335 -326 l165 -162 57 69 58 69 -89 116 c-151 196 -394 348 -616 385 l-80 13 170 -164z"/> <path d="M356 4060 l6 -280 175 0 c184 0 345 -36 458 -101 36 -21 65 -31 65 -23 0 14 -673 669 -698 679 -7 3 -9 -121 -6 -275z"/> <path d="M1422 2903 c-321 -430 -514 -543 -926 -543 l-196 0 0 -522 0 -521 485 7 c713 10 755 33 1251 680 l308 403 -365 351 c-200 194 -371 355 -379 358 -8 3 -88 -93 -178 -213z m241 -105 c64 -34 117 -85 117 -112 0 -15 11 -24 25 -21 14 3 23 -6 20 -20 -3 -14 3 -23 14 -20 21 6 192 -168 185 -190 -2 -8 7 -13 20 -10 13 3 27 -11 31 -30 9 -40 -152 -279 -178 -263 -9 6 -17 -13 -17 -41 0 -28 -7 -49 -15 -46 -8 3 -35 -15 -60 -40 -25 -25 -39 -45 -31 -45 7 0 -4 -14 -25 -31 -22 -18 -25 -25 -9 -17 20 10 18 1 -8 -28 -20 -24 -45 -38 -55 -32 -10 6 -16 4 -13 -6 9 -26 -106 -167 -126 -155 -10 7 -24 -2 -30 -20 -7 -17 -19 -26 -28 -21 -9 5 -21 -5 -28 -22 -7 -18 -25 -27 -42 -21 -18 7 -30 0 -30 -18 0 -16 -7 -29 -15 -29 -8 0 -37 -6 -63 -13 -34 -9 -44 -6 -34 10 9 14 3 18 -17 11 -17 -7 -26 -20 -20 -29 5 -9 -27 -15 -72 -12 -45 2 -86 -2 -90 -9 -13 -20 -489 -15 -489 5 0 9 -7 16 -15 15 -57 -9 -64 8 -64 147 0 80 -3 186 -7 235 -4 50 -2 99 4 110 7 11 13 34 14 50 6 91 5 90 126 90 65 0 113 8 107 18 -6 10 21 12 61 4 59 -11 81 -5 115 29 23 23 55 37 71 31 18 -7 28 3 28 26 0 47 56 70 93 40 18 -16 27 -16 27 -1 0 32 142 163 176 163 17 0 25 5 19 12 -18 18 50 88 72 74 10 -7 13 -3 6 9 -17 28 44 89 72 72 12 -7 15 -4 8 8 -7 11 1 26 17 32 16 6 24 24 18 40 -6 16 -1 35 11 42 11 7 21 2 21 -13 1 -19 5 -19 19 3 10 16 14 36 9 45 -15 23 28 20 75 -6z"/> <path d="M4160 2607 l0 -233 -215 13 c-118 7 -242 17 -275 24 l-60 12 70 -64 c39 -36 297 -289 575 -564 l505 -499 215 147 c118 80 308 208 421 285 113 76 199 144 190 152 -9 7 -173 120 -366 250 -610 413 -848 576 -938 644 -122 92 -122 93 -122 -167z m281 -167 c19 0 75 -42 142 -105 20 -19 50 -29 67 -22 16 6 30 2 30 -9 0 -11 -11 -25 -25 -31 -14 -5 -5 -11 20 -11 25 -1 45 -13 45 -25 0 -13 6 -18 12 -11 12 12 143 -76 171 -113 7 -10 23 -12 35 -4 12 7 22 5 22 -4 0 -10 43 -49 95 -86 52 -37 102 -79 111 -93 9 -15 24 -22 33 -17 9 6 22 -2 28 -18 6 -17 2 -35 -8 -42 -11 -6 -14 -20 -8 -30 6 -11 2 -20 -10 -21 -11 -2 -30 -4 -42 -5 -11 -2 -27 -13 -35 -25 -8 -12 -34 -20 -59 -18 -33 2 -39 -3 -24 -21 19 -23 -15 -52 -67 -57 -8 -1 -24 -15 -34 -32 -11 -16 -20 -21 -20 -10 -1 11 -14 3 -31 -19 -16 -21 -29 -31 -29 -21 0 10 -12 1 -26 -18 -25 -34 -29 -34 -60 -4 -18 19 -36 31 -41 28 -14 -10 -453 413 -453 437 0 12 -23 37 -51 56 -27 18 -45 42 -38 52 7 11 0 18 -14 14 -14 -3 -29 15 -33 40 -4 25 2 45 13 45 25 0 163 133 150 146 -5 5 16 29 46 53 33 25 59 35 63 22 4 -11 15 -21 25 -21z"/> <path d="M2580 1999 c-89 -121 -91 -108 52 -281 131 -159 274 -259 457 -319 107 -36 331 -72 331 -54 0 5 -173 176 -385 380 l-386 370 -69 -96z"/> </g> </svg> 